<svg width="22" height="22" viewBox="0 0 22 22" fill="none" xmlns="http://www.w3.org/2000/svg">
<path d="M20.3171 6.28771L6.15745 3.59066L5.74702 1.43597C5.62709 0.804352 5.07067 0.345947 4.42391 0.345947H1.22884C0.550224 0.345947 0 0.896171 0 1.57478C0 2.2534 0.550224 2.80362 1.22884 2.80362H3.50572L3.96196 5.19877C3.96462 5.21794 5.47186 14.112 5.47186 14.112C5.64626 15.1402 6.63591 15.9768 7.67777 15.9768H19.1858C20.2391 15.9768 21.1985 15.1251 21.3242 14.0782L21.9858 8.57011C22.113 7.51104 21.3643 6.48728 20.3171 6.28771Z" fill="white"/>
<path d="M8.13327 17.2698C6.92459 17.2698 5.94122 18.2531 5.94122 19.4619C5.94122 20.6707 6.92459 21.6541 8.13327 21.6541C9.34206 21.6541 10.3254 20.6707 10.3254 19.4619C10.3254 18.2531 9.34206 17.2698 8.13327 17.2698Z" fill="white"/>
<path d="M17.7825 17.2698C16.5738 17.2698 15.5904 18.2531 15.5904 19.4619C15.5904 20.6707 16.5738 21.6541 17.7825 21.6541C18.9913 21.6541 19.9747 20.6707 19.9747 19.4619C19.9747 18.2531 18.9913 17.2698 17.7825 17.2698Z" fill="white"/>
</svg>
