<svg width="47" height="47" viewBox="0 0 47 47" fill="none" xmlns="http://www.w3.org/2000/svg">
<path d="M38.9861 11.7988H37.9551V19.8127C37.9551 25.7501 33.1247 30.5806 27.1873 30.5806H11.7988V31.6118C11.7988 36.0306 15.3939 39.6254 19.8127 39.6254H36.2752L44.7417 46.6809C44.9937 46.891 45.3071 47 45.6234 47C46.3804 47 47 46.3857 47 45.623V19.8127C47 15.3871 43.4196 11.7988 38.9861 11.7988Z" fill="url(#gradient1)"/>
<path d="M35.2012 19.8127V8.01394C35.2012 3.58044 31.6133 0 27.1873 0H8.01394C3.58044 0 0 3.58797 0 8.01394V33.8243C0 34.5866 0.619629 35.2012 1.37659 35.2012C1.69286 35.2012 2.00626 35.0922 2.25835 34.8817L10.7248 27.8266H27.1873C31.6061 27.8266 35.2012 24.2319 35.2012 19.8127ZM17.6006 21.9273C16.8404 21.9273 16.2237 21.3105 16.2237 20.5503C16.2237 19.7901 16.8404 19.1734 17.6006 19.1734C18.3605 19.1734 18.9776 19.7901 18.9776 20.5503C18.9776 21.3105 18.3605 21.9273 17.6006 21.9273ZM18.9776 15.8375V16.1258C18.9776 16.886 18.3608 17.5027 17.6006 17.5027C16.8401 17.5027 16.2237 16.886 16.2237 16.1258V14.6509C16.2237 13.8904 16.8401 13.274 17.6006 13.274C18.8743 13.274 19.9106 12.2373 19.9106 10.9636C19.9106 9.68959 18.8743 8.65329 17.6006 8.65329C16.9824 8.65329 16.4026 8.89354 15.9666 9.32957C15.5305 9.76561 15.2903 10.3454 15.2903 10.9618C15.2903 11.7224 14.6739 12.3399 13.9133 12.3399C13.1528 12.3399 12.5364 11.7238 12.5364 10.9636V10.9618C12.5364 9.60999 13.0631 8.33846 14.0191 7.38248C14.9754 6.42614 16.2466 5.89938 17.5988 5.89938C20.3929 5.89938 22.6645 8.17136 22.6645 10.9636C22.6645 13.279 21.1029 15.2365 18.9776 15.8375Z" fill="url(#gradient2)"/>
<defs>
<linearGradient id="gradient1" x1="23.5" y1="0" x2="23.5" y2="47" gradientUnits="userSpaceOnUse">
<stop stop-color="#EC7E25"/>
<stop offset="1" stop-color="#C43A2E"/>
</linearGradient>
<linearGradient id="gradient2" x1="23.5" y1="0" x2="23.5" y2="47" gradientUnits="userSpaceOnUse">
<stop stop-color="#EC7E25"/>
<stop offset="1" stop-color="#C43A2E"/>
</linearGradient>
</defs>
</svg>
