<svg width="47" height="47" viewBox="0 0 47 47" fill="none" xmlns="http://www.w3.org/2000/svg">
<path d="M36.9108 35.1227C32.4745 35.1227 28.8643 31.5125 28.8643 27.0762C28.8643 22.6399 32.4745 19.0297 36.9108 19.0297H41.3811V15.4535C41.3811 13.4813 39.7771 11.8773 37.8049 11.8773H36.0167V8.30112C36.0167 6.32884 34.4128 4.72491 32.4405 4.72491H7.4071C4.75534 4.72491 2.56312 6.66322 2.13398 9.19339C2.09464 9.34001 2.04279 9.48306 2.04279 9.6422V36.9108C2.04279 39.8683 4.44957 42.2751 7.4071 42.2751H37.8049C39.7771 42.2751 41.3811 40.6712 41.3811 38.6989V35.1227H36.9108ZM5.61899 10.0892C5.61899 9.10398 6.42006 8.30112 7.4071 8.30112H32.4405V11.8773H7.4071C6.42006 11.8773 5.61899 11.0745 5.61899 10.0892Z" fill="url(#gradient1)"/>
<path d="M43.6162 21.7119H36.9108C33.9533 21.7119 31.5465 24.1187 31.5465 27.0762C31.5465 30.0337 33.9533 32.4405 36.9108 32.4405H43.6162C44.3565 32.4405 44.9573 31.8397 44.9573 31.0994V23.053C44.9573 22.3127 44.3565 21.7119 43.6162 21.7119ZM36.9108 28.8643C35.9238 28.8643 35.1227 28.0632 35.1227 27.0762C35.1227 26.0892 35.9238 25.2881 36.9108 25.2881C37.8978 25.2881 38.6989 26.0892 38.6989 27.0762C38.6989 28.0632 37.8978 28.8643 36.9108 28.8643Z" fill="url(#gradient2)"/>
<defs>
<linearGradient id="gradient1" x1="23.5" y1="4.72491" x2="23.5" y2="42.2751" gradientUnits="userSpaceOnUse">
<stop stop-color="#EC7E25"/>
<stop offset="1" stop-color="#C43A2E"/>
</linearGradient>
<linearGradient id="gradient2" x1="23.5" y1="4.72491" x2="23.5" y2="42.2751" gradientUnits="userSpaceOnUse">
<stop stop-color="#EC7E25"/>
<stop offset="1" stop-color="#C43A2E"/>
</linearGradient>
</defs>
</svg>
