<svg width="47" height="47" viewBox="0 0 47 47" fill="none" xmlns="http://www.w3.org/2000/svg">
<g id="Icon tickets" clip-path="url(#clip0_744:14854)">
<g id="Vector">
<path d="M41.4303 23.5063C41.2204 24.5605 40.2855 25.3284 39.1646 25.3761C38.8116 25.3904 38.5111 25.648 38.4443 25.9962C38.3727 26.3444 38.5492 26.6974 38.8688 26.8453C39.8848 27.3223 40.4524 28.3907 40.2378 29.4449L40.0374 30.4466C39.7751 31.7679 38.3154 32.5931 37.0371 32.2783C36.6794 32.1924 36.3121 32.1256 35.9496 32.0541C35.4153 31.9491 34.8811 31.8394 34.3469 31.7345C33.6409 31.5914 32.9349 31.4531 32.229 31.31C31.3895 31.1431 30.5452 30.9713 29.7057 30.8043C28.7661 30.6135 27.8264 30.4276 26.8866 30.2368C25.885 30.0364 24.8785 29.8361 23.8768 29.631C22.8464 29.4259 21.8162 29.216 20.7906 29.0109C19.7699 28.8058 18.7539 28.6006 17.733 28.3956C16.76 28.2 15.7869 28.0044 14.8139 27.8089C13.9219 27.6324 13.0347 27.4511 12.1427 27.2746C11.37 27.122 10.5972 26.9646 9.82926 26.8119C9.21394 26.6879 8.59861 26.564 7.97852 26.4399C7.55399 26.354 7.12942 26.2682 6.70494 26.1824C6.50932 26.1441 6.3138 26.1013 6.11824 26.0631C6.1087 26.0631 6.09915 26.0583 6.08957 26.0583C6.19451 26.5544 6.14681 27.0838 5.91785 27.5799C5.43603 28.6198 4.31509 29.1635 3.23713 28.9537C2.91754 28.8916 2.56934 29.0109 2.43101 29.3066L2.00171 30.2368C1.86343 30.5325 2.00171 30.8759 2.25457 31.081C2.30227 31.1192 36.6841 46.9698 36.7413 46.984C37.0609 47.046 37.4091 46.9268 37.5475 46.6311L37.9768 45.7009C38.1151 45.4052 37.9768 45.0618 37.7239 44.8567C36.8654 44.1745 36.5505 42.9677 37.0323 41.9279C37.5141 40.8881 38.635 40.3443 39.713 40.5542C40.0326 40.6162 40.3808 40.4969 40.5191 40.2012L40.9484 39.2711C41.0867 38.9753 40.9484 38.6319 40.6956 38.4268C39.837 37.7447 39.5222 36.5379 40.0039 35.4981C40.4857 34.4583 41.6066 33.9145 42.6847 34.1243C43.0042 34.1863 43.3525 34.0671 43.4908 33.7714L43.9201 32.8412C44.0584 32.5455 43.9201 32.202 43.6672 31.9969C42.8086 31.3148 42.4938 30.108 42.9756 29.0682C43.4574 28.0283 44.5783 27.4846 45.6563 27.6944C45.9759 27.7564 46.3241 27.6372 46.4624 27.3415L46.9346 26.3111C47.0729 26.0154 46.9441 25.6672 46.6484 25.5289L41.5112 23.1583L41.4303 23.5063Z" fill="url(#gradient1)"/>
<path d="M0.460837 23.1772C0.518076 23.2058 37.6331 30.6517 37.6952 30.6517C38.0196 30.6374 38.3343 30.437 38.3963 30.1222L38.5967 29.1205C38.6587 28.8009 38.4488 28.4956 38.1531 28.3573C37.1609 27.8899 36.5742 26.7928 36.7984 25.6671C37.0226 24.5414 37.9909 23.7543 39.088 23.7066C39.4123 23.6923 39.7272 23.492 39.7892 23.1771L39.937 22.4426L39.9896 22.1707C40.0516 21.8511 39.8416 21.5458 39.5459 21.4075C38.5537 20.94 37.967 19.843 38.1913 18.7173C38.4155 17.5915 39.3838 16.8045 40.4809 16.7568C40.8052 16.7425 41.12 16.5421 41.182 16.2273L41.3824 15.2256C41.4444 14.906 41.2345 14.6008 40.9387 14.4624C39.9466 13.995 39.3599 12.8979 39.5841 11.7722C39.8083 10.6465 40.7766 9.85944 41.8737 9.81174C42.198 9.79743 42.5128 9.59709 42.5749 9.28227L42.799 8.17087C42.8611 7.85128 42.6559 7.54124 42.3364 7.47923C42.3364 7.47923 5.04005 -6.10352e-05 5.00189 -6.10352e-05C4.72523 -6.10352e-05 4.48196 0.195507 4.42472 0.472165L4.20053 1.58356C4.13852 1.90315 4.3484 2.20843 4.64414 2.34676C5.63629 2.81421 6.223 3.9113 5.99881 5.03701C5.77462 6.16272 4.80632 6.94976 3.70923 6.99746C3.38482 7.01177 3.07005 7.21211 3.00804 7.52693L2.80771 8.52862C2.7457 8.84821 2.95557 9.15348 3.25131 9.29181C4.24346 9.75927 4.83022 10.8564 4.60598 11.9821C4.38179 13.1078 3.41349 13.8948 2.3164 13.9425C1.99204 13.9568 1.67722 14.1572 1.61522 14.472L1.41488 15.4737C1.35287 15.7933 1.56279 16.0985 1.85848 16.2369C2.85068 16.7043 3.43739 17.8014 3.21315 18.9271C2.98896 20.0529 2.02066 20.8399 0.923571 20.8876C0.599213 20.9019 0.284396 21.1023 0.222386 21.4171L0.0220481 22.4188C-0.0447791 22.7384 0.165051 23.0389 0.460837 23.1772ZM32.2526 10.9518C32.3814 10.3079 33.0111 9.8881 33.655 10.0169C34.2989 10.1457 34.7187 10.7753 34.5899 11.4193L32.0475 24.0787C31.933 24.6463 31.437 25.0375 30.8789 25.0375C30.8025 25.0375 30.7215 25.028 30.6452 25.0137C30.0012 24.8849 29.5815 24.2553 29.7102 23.6113L32.2526 10.9518ZM10.7496 6.63499C10.8784 5.99105 11.5081 5.57129 12.152 5.70008C12.796 5.82887 13.2157 6.45851 13.0869 7.10245L10.5494 19.7619C10.4349 20.3295 9.9388 20.7207 9.38071 20.7207C9.30439 20.7207 9.2233 20.7112 9.14703 20.6969C9.11364 20.6921 9.08025 20.6825 9.05163 20.673C8.46016 20.5013 8.09282 19.905 8.21689 19.2945L8.39333 18.4025L10.7496 6.63499Z" fill="url(#gradient2)"/>
</g>
</g>
<defs>
<linearGradient id="gradient1" x1="23.4999" y1="-6.10352e-05" x2="23.4999" y2="47" gradientUnits="userSpaceOnUse">
<stop stop-color="#EC7E25"/>
<stop offset="1" stop-color="#C43A2E"/>
</linearGradient>
<linearGradient id="gradient2" x1="23.4999" y1="-6.10352e-05" x2="23.4999" y2="47" gradientUnits="userSpaceOnUse">
<stop stop-color="#EC7E25"/>
<stop offset="1" stop-color="#C43A2E"/>
</linearGradient>
<clipPath id="clip0_744:14854">
<rect width="47" height="47" fill="white"/>
</clipPath>
</defs>
</svg>
