<svg width="47" height="47" viewBox="0 0 47 47" fill="none" xmlns="http://www.w3.org/2000/svg">
<g clip-path="url(#clip0_323:6254)">
<path d="M36.7697 37.7093V30.384C36.7697 28.6417 35.9702 27.082 34.7181 26.053C33.7505 25.258 32.5131 24.7798 31.1655 24.7798H26.1646C25.5115 24.7798 25.0341 25.4019 25.3386 25.9797C26.268 27.7436 28.1199 28.9492 30.2485 28.9492H30.9315V31.7031C27.4964 31.7031 24.7022 34.4974 24.7022 37.9315V39.2965C24.0158 39.2965 22.6345 39.2965 21.9483 39.2965V37.9315C21.9483 34.8333 23.5253 32.0969 25.9185 30.4813C23.5391 29.0199 21.9483 26.3936 21.9483 23.4028C21.9483 22.6424 22.5648 22.0259 23.3252 22.0259H31.1655C32.4534 22.0259 33.6743 22.3187 34.764 22.841V19.8981L31.6693 12.0178L35.4158 4.61295C36.1363 3.16689 35.5482 1.41064 34.1022 0.690038C32.6562 -0.030472 30.8999 0.557667 30.1793 2.00364L28.8182 4.75983L27.679 1.85906C27.2274 0.705184 26.124 0.000187914 24.9554 0.000187914C22.9359 -0.0290033 21.4618 2.11573 22.2319 3.99425L25.3052 11.8731L21.932 18.705V17.0644C21.932 15.4488 20.6224 14.1391 19.0068 14.1391C17.3857 14.1268 16.0667 15.4913 16.0815 17.065V19.0146C15.9273 15.1342 10.3845 15.1354 10.2308 19.0146C10.2386 19.2455 10.2261 32.7285 10.2313 33.3489L13.1559 42.5148V46.9999H33.845C33.845 45.6597 33.845 42.3475 33.845 42.0971L36.7697 37.7093Z" fill="url(#gradient1)"/>
</g>
<defs>
<linearGradient id="gradient1" x1="23.4998" y1="-0.000106812" x2="23.4998" y2="46.9999" gradientUnits="userSpaceOnUse">
<stop stop-color="#EC7E25"/>
<stop offset="1" stop-color="#C43A2E"/>
</linearGradient>
<clipPath id="clip0_323:6254">
<rect width="47" height="47" fill="white"/>
</clipPath>
</defs>
</svg>
